<?xml version="1.0" encoding="UTF-8"?>
<svg xmlns="http://www.w3.org/2000/svg" xmlns:xlink="http://www.w3.org/1999/xlink" width="186pt" height="108pt" viewBox="0 0 186 108" version="1.1">
<g id="surface1">
<rect x="0" y="0" width="186" height="108" style="fill:rgb(0%,56.078431%,74.509804%);fill-opacity:1;stroke:none;"/>
<path style=" stroke:none;fill-rule:nonzero;fill:rgb(100%,100%,100%);fill-opacity:1;" d="M 105.375 36.890625 L 113.304688 36.890625 L 113.304688 40.046875 C 115.324219 37.457031 118.4375 35.957031 121.71875 36 C 125.347656 35.941406 128.726562 37.855469 130.539062 41 C 133.371094 36.953125 137.660156 36 140.648438 36 C 144.773438 36 148.414062 37.941406 150.359375 41.339844 C 151.003906 42.476562 152.140625 44.980469 152.140625 49.914062 L 152.140625 70.949219 L 144.210938 70.949219 L 144.210938 52.179688 C 144.210938 48.378906 143.804688 46.839844 143.480469 46.113281 C 142.980469 44.820312 141.78125 43.113281 138.949219 43.113281 C 137.078125 43.148438 135.332031 44.078125 134.261719 45.613281 C 132.886719 47.554688 132.726562 50.46875 132.726562 53.378906 L 132.726562 70.949219 L 124.789062 70.949219 L 124.789062 52.179688 C 124.789062 48.378906 124.386719 46.839844 124.058594 46.113281 C 123.558594 44.820312 122.359375 43.113281 119.53125 43.113281 C 117.65625 43.148438 115.914062 44.078125 114.839844 45.613281 C 113.464844 47.554688 113.304688 50.46875 113.304688 53.378906 L 113.304688 70.949219 L 105.375 70.949219 Z M 77.925781 36.890625 L 85.855469 36.890625 L 85.855469 39.964844 C 86.800781 38.851562 87.921875 37.894531 89.171875 37.136719 C 90.652344 36.316406 92.332031 35.921875 94.023438 36 C 96.210938 35.949219 98.371094 36.511719 100.253906 37.621094 L 97 44.820312 C 95.804688 44.019531 94.394531 43.59375 92.953125 43.605469 C 91.253906 43.605469 89.558594 43.84375 88.019531 45.464844 C 85.835938 47.808594 85.835938 51.046875 85.835938 53.308594 L 85.835938 70.949219 L 77.929688 70.949219 Z M 41.949219 54.039062 C 41.949219 59.945312 45.671875 64.878906 51.414062 64.878906 C 56.414062 64.878906 61.039062 61.238281 61.039062 54.121094 C 61.039062 46.675781 56.429688 43.121094 51.414062 43.121094 C 45.671875 43.121094 41.949219 47.976562 41.949219 54.039062 M 60.554688 36.890625 L 68.5 36.890625 L 68.5 70.949219 L 60.558594 70.949219 L 60.558594 67.390625 C 58.023438 70.375 54.285156 72.066406 50.371094 72 C 39.871094 72 33.871094 63.265625 33.871094 53.878906 C 33.871094 42.796875 41.476562 36 50.453125 36 C 54.40625 35.914062 58.164062 37.71875 60.570312 40.855469 Z M 60.554688 36.890625 "/>
</g>
</svg>
